<svg xmlns="http://www.w3.org/2000/svg" viewBox="0 0 293.2 89.1"><path fill="#094766" d="M147.6 39.5c1.7 1.1 4.3 2 7 2 4 0 6.3-2.1 6.3-5.1 0-2.8-1.6-4.4-5.7-6-4.9-1.7-8-4.3-8-8.5 0-4.7 3.9-8.2 9.7-8.2 3.1 0 5.3.7 6.7 1.5l-1.1 3.2c-1-.5-3-1.4-5.7-1.4-4.1 0-5.7 2.5-5.7 4.5 0 2.8 1.8 4.2 6 5.8 5.1 2 7.7 4.4 7.7 8.9 0 4.6-3.4 8.7-10.6 8.7-2.9 0-6.1-.8-7.7-1.9l1.1-3.5zm40.1-1.1c0 2.2 0 4.2.2 5.9h-3.5l-.2-3.5h-.1c-1 1.7-3.3 4-7.2 4-3.4 0-7.5-1.9-7.5-9.5V22.6h3.9v12c0 4.1 1.3 6.9 4.8 6.9 2.6 0 4.5-1.8 5.2-3.6.2-.6.4-1.3.4-2V22.6h3.9v15.8zm5.9 5.9c.1-1.5.2-3.7.2-5.6V12.5h3.9v13.6h.1c1.4-2.4 3.9-4 7.4-4 5.4 0 9.2 4.5 9.1 11 0 7.7-4.9 11.6-9.7 11.6-3.1 0-5.6-1.2-7.2-4.1h-.1l-.2 3.6h-3.5zm4.1-8.7c0 .5.1 1 .2 1.4.8 2.7 3 4.6 5.9 4.6 4.1 0 6.6-3.4 6.6-8.3 0-4.3-2.2-8-6.4-8-2.7 0-5.2 1.8-6 4.8-.1.4-.2 1-.2 1.6v3.9zm21.1-23.1h3.9v31.7h-3.9V12.5zm14.4 4c0 1.3-.9 2.4-2.5 2.4-1.4 0-2.4-1.1-2.4-2.4 0-1.4 1-2.5 2.5-2.5 1.5.1 2.4 1.1 2.4 2.5zm-4.3 27.8V22.6h3.9v21.6h-3.9zm10-15.8c0-2.2 0-4.1-.2-5.9h3.4l.2 3.5h.1c1.2-2.1 3.2-4 6.8-4 3 0 5.2 1.8 6.1 4.3h.1c.7-1.2 1.5-2.1 2.4-2.8 1.3-1 2.7-1.5 4.8-1.5 2.9 0 7.1 1.9 7.1 9.4v12.7h-3.8V32c0-4.2-1.5-6.7-4.7-6.7-2.2 0-4 1.7-4.7 3.6-.2.5-.3 1.3-.3 2v13.4h-3.8v-13c0-3.4-1.5-5.9-4.5-5.9-2.5 0-4.2 2-4.9 3.9-.2.6-.3 1.3-.3 1.9v13.1h-3.8V28.5zm39 5.6c.1 5.3 3.5 7.5 7.4 7.5 2.8 0 4.5-.5 6-1.1l.7 2.8c-1.4.6-3.8 1.3-7.2 1.3-6.7 0-10.6-4.4-10.6-10.9S278 22 284.3 22c7.1 0 8.9 6.2 8.9 10.2 0 .8-.1 1.4-.1 1.8h-15.2zm11.5-2.8c0-2.5-1-6.4-5.5-6.4-4 0-5.7 3.7-6 6.4h11.5z"/><path fill="#68AE5E" d="M152.7 60.8H145v-2.3h18.9v2.3h-7.8v18.9h-3.3V60.8zm23.5 8.4c0-1.8 0-3.3-.2-4.8h2.9l.1 3h.2c.8-2 2.8-3.3 5.1-3.3.4 0 .6 0 .9.1v2.6c-.3-.1-.7-.1-1.1-.1-2.3 0-4 1.5-4.5 3.6-.1.4-.2.8-.2 1.3v8.1h-3.3V69.2zm33.6 10.5l-.3-1.9h-.1c-1 1.2-3 2.3-5.6 2.3-3.7 0-5.6-2.2-5.6-4.4 0-3.7 3.9-5.7 11-5.7v-.3c0-1.3-.4-3.5-4.2-3.5-1.7 0-3.5.4-4.8 1.1l-.8-1.8c1.5-.8 3.7-1.4 6-1.4 5.6 0 7 3.2 7 6.2V76c0 1.3.1 2.6.3 3.7h-2.9zm-.4-7.8c-3.6-.1-7.7.5-7.7 3.4 0 1.8 1.4 2.6 3.1 2.6 2.4 0 3.9-1.3 4.4-2.6.1-.3.2-.6.2-.9v-2.5zm20.9-7.5l3.6 8.6c.6 1.4 1.1 2.6 1.5 3.9h.1c.4-1.3.9-2.5 1.5-3.9l3.6-8.6h3.5l-7.2 15.2h-3.2l-7-15.2h3.6zm29.7 8.2c.1 3.7 2.9 5.3 6.3 5.3 2.4 0 3.8-.3 5.1-.8l.6 2c-1.2.4-3.2.9-6.1.9-5.6 0-9-3.1-9-7.7s3.3-8.2 8.6-8.2c6 0 7.6 4.4 7.6 7.2 0 .6-.1 1-.1 1.3h-13zm9.7-2c0-1.8-.9-4.5-4.6-4.5-3.4 0-4.8 2.6-5.1 4.5h9.7zm18.7-13.3h3.3v22.4h-3.3V57.3zM25.5 81.9c7 4.6 15.4 7.3 24.4 7.3 24.6 0 44.6-20 44.6-44.6 0-2.6-.2-5.1-.7-7.6-36.8 50-64 45.9-68.3 44.9z"/><radialGradient id="a" cx="45.95" cy="33" r="40.01" gradientUnits="userSpaceOnUse"><stop offset="0" stop-color="#0F6FA9"/><stop offset="1" stop-color="#094766"/></radialGradient><path fill="url(#a)" d="M91.9 29.5C85.7 12.3 69.2 0 49.9 0 25.3 0 5.3 20 5.3 44.6c0 3.4.4 6.6 1.1 9.8h-.1s-3.9.4-6.3-2.9c0 0 2.4 5.1 8.4 9.3C20 68.8 45 73.2 91.9 29.7v-.2z"/><path fill="#68AE5E" d="M105.3 26.2l4.9 13.8 7.6-29.6"/><linearGradient id="b" x1="117.56" x2="87.11" y1="15.84" y2="15.84" gradientUnits="userSpaceOnUse"><stop offset="0" stop-color="#0F6FA9"/><stop offset="1" stop-color="#094766"/></linearGradient><path fill="url(#b)" d="M87.1 14.9l13.2 6.3 17.3-10.7"/></svg>